<?xml version="1.0" standalone="no"?><!DOCTYPE svg PUBLIC "-//W3C//DTD SVG 1.1//EN" "http://www.w3.org/Graphics/SVG/1.1/DTD/svg11.dtd"><svg class="icon" height="512" viewBox="0 0 1024 1024" version="1.1" xmlns="http://www.w3.org/2000/svg"><path d="M883.9466666666667 799.8933333333333l90.02666666666667 90.02666666666667c12.053333333333335 12.053333333333335 12.053333333333335 31.573333333333334 0 43.626666666666665-12.053333333333335 12.053333333333335-31.573333333333334 12.053333333333335-43.626666666666665 0l-84.90666666666667-84.90666666666667c-30.506666666666668 26.879999999999995-70.4 43.093333333333334-114.24 43.093333333333334-95.46666666666667 0-172.8-77.33333333333333-172.8-172.8s77.33333333333333-172.8 172.8-172.8 172.8 77.33333333333333 172.8 172.8c0 29.226666666666663-7.253333333333333 56.74666666666667-20.053333333333335 80.96000000000001zM547.4133333333334 605.0133333333333c-22.613333333333333 34.13333333333333-35.733333333333334 75.09333333333333-35.733333333333334 119.03999999999999 0 65.70666666666666 29.333333333333332 124.58666666666666 75.62666666666667 164.26666666666665C528.3199999999999 897.3866666666665 459.84000000000003 900.2666666666667 393.6 900.2666666666667c-175.04 0-360-23.466666666666665-360-112.74666666666667v-23.466666666666665c0-70.4 125.01333333333332-136.21333333333334 234.98666666666668-173.76 10.026666666666667-4.693333333333333 45.013333333333335-42.24 24.959999999999994-93.97333333333333-55.04-51.626666666666665-95.03999999999999-136.21333333333334-95.03999999999999-220.69333333333333 0-126.82666666666668 90.02666666666667-192.53333333333333 194.98666666666668-192.53333333333333 99.94666666666667 0 194.98666666666668 65.70666666666666 194.98666666666668 192.53333333333333 0 84.48-45.013333333333335 169.06666666666666-99.94666666666667 220.69333333333333-24.959999999999994 61.013333333333335 10.026666666666667 93.97333333333333 15.04 93.97333333333333 14.399999999999999 4.266666666666667 29.12 9.173333333333332 43.84 14.72z m183.7866666666667 225.06666666666666c61.33333333333333 0 111.14666666666666-49.70666666666667 111.14666666666666-111.14666666666666 0-61.33333333333333-49.70666666666667-111.14666666666666-111.14666666666666-111.14666666666666S620.0533333333333 657.6 620.0533333333333 718.9333333333334s49.70666666666667 111.14666666666666 111.14666666666666 111.14666666666666z" /></svg>